<svg width="200" height="49" viewBox="0 0 200 49" fill="none" xmlns="http://www.w3.org/2000/svg">
<path d="M182.494 4.12829C178.466 4.85354 175.475 8.27892 175.454 12.1841C175.454 12.7866 175.42 13.2776 175.387 13.2776C175.264 13.2776 171.124 17.8299 170.935 18.1534C170.789 18.4324 170.767 19.4812 170.767 26.4993V34.5328L171.046 35.0014C171.492 35.7378 175.241 39.6876 175.732 39.9442C176.156 40.1562 176.402 40.1674 184 40.1674H191.822L192.279 39.9219C192.803 39.6207 196.72 35.4142 197.01 34.8228C197.199 34.4435 197.211 33.9079 197.211 26.4993C197.211 18.7894 197.199 18.5663 196.987 18.1646C196.742 17.7182 193.071 13.6792 192.603 13.3445C192.312 13.1437 192.301 13.0879 192.29 12.1171C192.279 8.58015 189.613 5.25521 186.053 4.29566C185.261 4.08367 183.264 3.98325 182.494 4.12829ZM185.372 9.02651C186.655 9.58434 187.492 10.7224 187.659 12.106L187.738 12.8312H183.877H180.017L180.095 12.106C180.341 10.0642 182.014 8.63597 184.044 8.73639C184.525 8.75873 185.038 8.87028 185.372 9.02651ZM191.074 18.4658L191.353 18.7336V26.4993V34.265L191.074 34.5328L190.806 34.8117H184.044C177.272 34.8117 176.948 34.7894 176.714 34.4324C176.669 34.3654 176.625 30.7838 176.625 26.477V18.6443L176.915 18.4212C177.205 18.1868 177.305 18.1868 184.011 18.1868H190.806L191.074 18.4658Z" fill="#EEEBEB"/>
<path d="M6.01392 13.0542C5.52299 13.3109 3.30262 15.654 2.90095 16.3235L2.62201 16.7921V26.4992V36.2063L2.86747 36.6526C3.2022 37.2551 5.23289 39.4643 5.81308 39.8548L6.29286 40.1672L14.7726 40.1449L23.2636 40.1114L23.6206 39.8548C23.8996 39.6651 24.8591 38.0584 27.5258 33.3834L31.0739 27.1686V26.4992L31.0627 25.8297L27.5146 19.6595C24.781 14.9287 23.8661 13.4225 23.5648 13.1881L23.1743 12.8869L14.795 12.8645C6.69454 12.8423 6.40444 12.8423 6.01392 13.0542ZM22.4602 22.4601C23.6652 24.6358 24.6583 26.4768 24.6583 26.5661C24.6583 26.6553 23.6652 28.4741 22.4491 30.6275L20.251 34.5327L14.5272 34.5661L8.81445 34.5884V26.5549V18.5214H14.5383H20.2622L22.4602 22.4601Z" fill="#EEEBEB"/>
<path d="M148.787 15.163C148.664 15.2188 148.463 15.375 148.341 15.5088C148.14 15.732 148.106 15.9552 148.061 17.6176L148.006 19.4699L146.387 19.5256C145.495 19.5591 144.68 19.626 144.569 19.6818C144.134 19.8827 144.044 20.3289 144.044 22.1477C144.044 24.7251 144.078 24.7697 146.5 24.7697H148.05L148.084 30.6163L148.117 36.4517L148.408 36.8645C148.977 37.6678 150.996 39.732 151.42 39.9552C151.844 40.1672 152.056 40.1672 157.914 40.1448L163.983 40.1114L164.474 39.732C165.155 39.1965 166.918 37.2439 167.23 36.686C167.464 36.2397 167.475 36.1281 167.475 33.0709V29.9022L167.152 29.5452L166.828 29.177H164.742H162.655L162.332 29.5452L162.008 29.9022V32.3569V34.8115H157.936H153.864V29.7906V24.7697H160.033C164.731 24.7697 166.259 24.7362 166.471 24.6247C167.04 24.3457 167.152 23.8883 167.119 21.9468L167.085 20.1728L166.717 19.8492L166.36 19.5256H162.109C157.188 19.5256 157.445 19.481 156.452 20.6302C155.191 22.0807 155.046 22.2034 154.555 22.2034C154.209 22.2034 154.064 22.1477 153.975 21.9914C153.908 21.8575 153.864 20.6414 153.864 18.8115V15.8436L153.54 15.4866L153.216 15.1184L151.107 15.096C149.958 15.0849 148.91 15.1072 148.787 15.163Z" fill="#EEEBEB"/>
<path d="M37.9805 19.682C37.7908 19.7713 37.5341 19.9833 37.4114 20.1507C37.2887 20.3291 36.0613 22.4603 34.6889 24.8814C32.3236 29.0544 32.1897 29.3111 32.2008 29.8466C32.2008 30.3599 32.3905 30.7281 34.5774 34.5886C37.5899 39.8996 37.456 39.6764 38.0027 39.9442C38.4379 40.1563 38.7057 40.1674 45.4226 40.1674C50.7671 40.1674 52.4519 40.1339 52.6638 40.0224C53.2329 39.7434 53.3445 39.286 53.311 37.3557C53.2775 35.682 53.2663 35.5927 53.0098 35.325C52.8535 35.1688 52.5523 34.9902 52.3403 34.9233C52.0948 34.8563 49.7406 34.8117 46.4714 34.8117H41.0042L39.5983 32.3124L38.1813 29.8019L39.5983 27.3138L41.0042 24.8257L44.318 24.7922C47.5425 24.7699 47.6318 24.7699 47.7545 24.9931C47.8996 25.2609 48 25.06 46.3487 27.9052C45.6458 29.099 45.0767 30.1925 45.0767 30.3153C45.0767 31.1297 45.4114 31.2413 47.9219 31.2413C50.1646 31.2413 50.3431 31.2078 50.901 30.6053C51.1576 30.3375 52.9316 27.2134 53.7238 25.6625C54.237 24.636 54.1701 24.3794 52.6638 21.7573C51.8047 20.2622 51.5481 19.9275 51.0795 19.682C50.6443 19.4589 38.5048 19.4589 37.9805 19.682Z" fill="#EEEBEB"/>
<path d="M60.4184 19.7379C60.2399 19.8495 60.0056 20.0392 59.9052 20.1507C59.7266 20.3627 55.364 27.9834 54.8954 28.8983C54.3933 29.8802 54.3933 29.869 57.127 34.7225C58.4993 37.1326 59.7378 39.2748 59.894 39.4869C60.4073 40.1786 60.2622 40.1675 67.3362 40.1675C74.2762 40.1675 74.2203 40.1675 74.5551 39.5761C74.6332 39.4311 74.7113 38.7281 74.7337 37.7686C74.7783 36.0057 74.6667 35.4813 74.1646 35.1019C73.8521 34.8788 73.7071 34.8676 68.6416 34.8118L63.4421 34.756L62.0697 32.3125C61.3111 30.9624 60.7085 29.802 60.7197 29.7351C60.742 29.6681 61.378 28.5189 62.1367 27.1912L63.509 24.77H68.5523C72.3459 24.77 73.6513 24.7365 73.8634 24.625C74.4324 24.346 74.5439 23.8886 74.5105 21.9471L74.477 20.1731L74.1088 19.8495L73.7517 19.5259H67.2469C61.1213 19.5259 60.7308 19.5371 60.4184 19.7379Z" fill="#EEEBEB"/>
<path d="M77.523 19.8495L77.1548 20.1731L77.1213 29.6459C77.099 38.4827 77.1102 39.1298 77.2887 39.498C77.6011 40.1117 77.8243 40.1675 80.0335 40.1675C82.1646 40.1675 82.5216 40.0894 82.8117 39.5761C82.9232 39.3865 82.9679 37.6905 83.0125 32.134L83.0683 24.9373L88.7807 24.8815L94.5046 24.8258L94.8058 24.5133L95.1188 24.2121L95.1523 22.3599C95.174 21.088 95.1523 20.3962 95.0519 20.1731C94.795 19.5482 94.6502 19.5259 90.6 19.5259C86.2368 19.5259 86.4828 19.4589 85.2661 20.8983C84.8309 21.4116 84.3958 21.9248 84.2954 22.0252C84.1063 22.2037 83.3919 22.2706 83.1688 22.1145C83.1018 22.0698 83.0237 21.6124 82.9902 21.0991C82.9345 20.2177 82.9121 20.1396 82.5774 19.8383L82.2315 19.5259H80.0558H77.8801L77.523 19.8495Z" fill="#EEEBEB"/>
<path d="M97.9523 19.6932C97.4059 19.9945 97.395 20.1284 97.4285 25.5175L97.4619 30.5384L97.7632 30.9736C98.3322 31.7658 100.396 33.8857 100.787 34.0754C101.121 34.2317 101.668 34.2539 104.781 34.2539C109.121 34.2539 108.898 34.3097 110.203 32.77C110.684 32.2009 111.119 31.71 111.186 31.6542C111.241 31.6096 111.521 31.5873 111.799 31.5984L112.301 31.6319L112.335 34.8899L112.357 38.1591H105.573C99.492 38.1591 98.7674 38.1814 98.5331 38.3376C98.0753 38.6612 97.964 39.1409 97.964 40.8035C97.964 42.4994 98.0979 42.9903 98.6335 43.2581C98.8452 43.3697 100.697 43.4032 106.7 43.4032C113.696 43.4032 114.544 43.3809 114.879 43.2246C115.414 42.9681 117.713 40.5022 118.014 39.8551L118.27 39.3306V29.869C118.27 19.5928 118.293 19.9499 117.657 19.6598C117.467 19.5706 116.653 19.5259 115.269 19.5259C113.316 19.5259 113.149 19.5371 112.881 19.7491C112.714 19.883 112.536 20.1731 112.469 20.3962C112.402 20.6417 112.357 22.4269 112.357 24.8481V28.8983H107.782H103.208V24.5357V20.1731L102.885 19.8495L102.561 19.5259H100.396C98.7556 19.5371 98.1757 19.5706 97.9523 19.6932Z" fill="#EEEBEB"/>
<path d="M121.931 19.8495L121.562 20.1731L121.529 31.3306C121.517 38.4938 121.54 42.5886 121.618 42.7783C121.674 42.9346 121.885 43.1689 122.086 43.2916C122.421 43.4924 122.655 43.5147 124.362 43.5147C125.467 43.5147 126.416 43.4589 126.628 43.392C127.308 43.1577 127.353 42.9011 127.42 39.6654L127.475 36.7644L128.033 36.7309L128.592 36.6974L129.484 37.7686C130.856 39.4199 130.577 39.3195 134.337 39.3641C137.685 39.3976 138.165 39.3418 138.611 38.8509C138.968 38.4492 143.833 30.1814 143.933 29.7798C144.023 29.4673 144.011 29.2442 143.889 28.9095C143.654 28.2288 138.879 20.307 138.466 19.9164L138.12 19.5817L130.209 19.5482L122.299 19.5259L121.931 19.8495ZM136.525 27.0573C137.283 28.2846 137.897 29.3669 137.864 29.4785C137.841 29.5789 137.228 30.6388 136.502 31.8439L135.174 34.0196L131.303 34.0308H127.42V29.4004V24.77L131.28 24.7923L135.141 24.8258L136.525 27.0573Z" fill="#EEEBEB"/>
<path d="M184.017 31.2969C185.172 31.2969 186.109 30.3603 186.109 29.2048C186.109 28.0494 185.172 27.1128 184.017 27.1128C182.861 27.1128 181.925 28.0494 181.925 29.2048C181.925 30.3603 182.861 31.2969 184.017 31.2969Z" fill="#EEEBEB"/>
</svg>
